# xmcd CD Database Entry
#
# Track frame offsets:
# 150
# 15120
# 31237
# 48075
# 72945
# 96002
# 113622
# 130350
# 138780
# 159280
# 177337
# 203039
# 228572
# 250182
#
# Disc length: 4110 seconds
#
# Revision: 2
# Processed by: cddbd v1.5PL3 Copyright (c) Steve Scherf et al.
# Submitted via: tcd 2.0b
#
DISCID=a7100c0e
DTITLE=MONGOL800 - Message
DYEAR=1900
DGENRE=
TTITLE0=anatani
TTITLE1=Song for you
TTITLE2=tiisana koino uta
TTITLE3=Melody
TTITLE4=tukiakarino sitade
TTITLE5=For life
TTITLE6=oyasirazu -Summer Again-
TTITLE7=HEY Mommy
TTITLE8=Marriage Blue
TTITLE9=mujunno ueni sakuhana
TTITLE10=ryuukyuu aika
TTITLE11=Dear My Lovers
TTITLE12=yume kanau
TTITLE13=Dandelion
EXTD=
EXTT0=
EXTT1=
EXTT2=
EXTT3=
EXTT4=
EXTT5=
EXTT6=
EXTT7=
EXTT8=
EXTT9=
EXTT10=
EXTT11=
EXTT12=
EXTT13=
PLAYORDER=
